<svg width="81" height="81" viewBox="0 0 81 81" fill="none" xmlns="http://www.w3.org/2000/svg">
<path d="M44.3238 46.9087C44.3238 46.9087 43.9927 44.3303 43.7592 42.7321C43.5256 41.1338 43.0306 38.8006 41.9705 33.7249C40.9104 28.6492 39.1216 24.5954 39.1216 24.5954M39.1216 24.5954C39.1216 24.5954 37.9368 20.8664 33.4698 17.1531C29.0027 13.4399 28.0618 13.4604 24.4699 13.0644C20.878 12.6683 17.0818 14.5432 15.1724 17.1523C13.2629 19.7613 13.0327 22.6955 13.961 26.3209C14.9305 30.1065 15.9764 31.0143 20.0796 35.4405C24.1828 39.8667 33.0533 46.9458 33.0533 46.9458M39.1216 24.5954C39.1862 17.7597 39.903 16.8975 41.1052 14.6375C42.3074 12.3774 47.2361 10.5798 50.8425 11.6615C54.4489 12.7431 55.9519 16.4697 56.2647 21.9798C56.5774 27.4898 50.8475 41.2995 47.7987 46.2167" stroke="#CE8228" stroke-width="2"/>
<path d="M57.2659 64.4991C56.5394 63.3772 55.0783 63.4157 53.9318 63.6006C52.7852 63.7854 52.1781 64.4856 52.0067 65.5103C51.6991 67.349 51.4845 68.6325 52.4163 70.6695C53.0162 71.9809 54.2236 72.1298 55.6751 72.1088C56.9199 72.0862 57.9967 71.542 58.2001 70.3256C58.6102 67.874 58.2772 66.061 57.2659 64.4991Z" fill="#CE8228"/>
<path d="M65.8131 60.9527C64.5827 59.4886 62.1564 60.3415 62.1564 60.3415C62.1564 60.3415 60.7695 60.6744 60.8227 62.2584C60.9053 64.7176 61.4432 66.1572 62.169 67.5237C62.6529 68.4348 62.9436 68.5982 65.1612 68.6538C67.3788 68.7094 67.9446 67.2289 67.3748 64.9285C66.7716 62.4934 66.1241 61.3227 65.8131 60.9527Z" fill="#CE8228"/>
<path d="M39.4687 49.7968C35.755 49.1761 32.3896 49.7032 29.6886 49.7963M15.1926 62.9212C15.1926 62.9212 16.1937 58.7896 16.871 57.1789C17.5482 55.5683 17.5175 55.0569 19.9685 53.0643C19.9685 53.0643 26.9876 49.8895 29.6886 49.7963M15.1926 62.9212C15.1926 62.9212 19.4682 66.2687 23.4187 67.2153C26.1339 67.8658 25.4586 67.8593 27.9767 68.0413C30.4948 68.2232 29.7382 68.2132 33.8048 67.8236M15.1926 62.9212L9.3845 65.0575M33.8048 67.8236C36.7632 67.5402 39.536 66.5589 41.765 65.5098M33.8048 67.8236C33.8048 67.8236 27.5172 63.5003 25.4682 60.3398C22.6883 55.7248 22.6518 52.0644 22.6518 52.0644M46.9485 62.4335C46.9485 62.4335 44.8915 64.0384 41.765 65.5098M54.9686 53.0659C54.9686 53.0659 57.8867 54.1699 61.6304 53.649C61.6304 53.649 69.1678 52.6718 68.9688 48.1715C68.9688 48.1715 67.2043 45.3367 65.2293 43.3844C65.2293 43.3844 64.7504 42.8207 63.6856 42.3078M52.4736 55.3275L62.1564 60.3415M62.1564 60.3415C62.1564 60.3415 64.5827 59.4886 65.8131 60.9527C66.1241 61.3227 66.7716 62.4934 67.3748 64.9285C67.9446 67.2289 67.3788 68.7094 65.1612 68.6538M62.1564 60.3415C62.1564 60.3415 60.7695 60.6744 60.8227 62.2584C60.9053 64.7176 61.4432 66.1572 62.169 67.5237C62.6529 68.4348 62.9436 68.5982 65.1612 68.6538M65.1612 68.6538C65.5752 69.9831 65.5259 72.18 65.5259 72.18M47.7082 59.2836C50.1202 61.2679 51.5197 61.6162 53.9318 63.6006M53.9318 63.6006C55.0783 63.4157 56.5394 63.3772 57.2659 64.4991C58.2772 66.061 58.6102 67.874 58.2001 70.3256C57.9967 71.542 56.9199 72.0862 55.6751 72.1088M53.9318 63.6006C52.7852 63.7854 52.1781 64.4856 52.0067 65.5103C51.6991 67.349 51.4845 68.6325 52.4163 70.6695C53.0162 71.9809 54.2236 72.1298 55.6751 72.1088M55.6751 72.1088C55.7289 73.6929 55.4726 75.2251 55.4726 75.2251M29.6886 49.7963C29.6886 49.7963 29.6884 52.5647 32.4683 57.1797C35.2482 61.7946 41.765 65.5098 41.765 65.5098M51.8809 48.1706C51.8809 48.1706 51.4045 46.3001 51.8811 45.4299C52.3576 44.5596 52.8343 43.6893 52.8343 43.6893C52.8343 43.6893 54.461 41.7519 56.1165 41.4142C57.7721 41.0764 58.7542 40.9355 60.2979 41.2153C60.6667 41.2821 60.9738 41.3484 61.2374 41.4142M71.4693 37.4368C71.4693 37.4368 66.9572 38.5955 65.9566 39.3708C64.9561 40.1461 63.6856 42.3078 63.6856 42.3078M63.6856 42.3078C63.485 42.2112 63.2636 42.1164 63.0207 42.0276C62.4753 41.828 62.0771 41.6237 61.2374 41.4142M67.3762 33.5665C67.3762 33.5665 62.9511 35.9562 62.3205 37.4364C61.69 38.9165 61.2374 41.4142 61.2374 41.4142" stroke="#CE8228" stroke-width="2"/>
</svg>
