<svg width="80" height="81" viewBox="0 0 80 81" fill="none" xmlns="http://www.w3.org/2000/svg">
<path d="M36.1447 46.8434C36.1447 46.8434 36.4758 44.2651 36.7095 42.6668C36.9431 41.0686 37.4382 38.7353 38.4986 33.6597C39.5589 28.5841 41.3478 24.5304 41.3478 24.5304M41.3478 24.5304C41.3478 24.5304 42.5328 20.8014 47 17.0884C51.4672 13.3753 52.4081 13.3959 56 13C59.5919 12.6041 63.388 14.4792 65.2973 17.0884C67.2066 19.6975 67.4368 22.6318 66.5082 26.2571C65.5386 30.0426 64.4926 30.9504 60.3892 35.3764C56.2858 39.8024 47.4151 46.8811 47.4151 46.8811M41.3478 24.5304C41.2836 17.6946 40.5668 16.8325 39.3647 14.5723C38.1626 12.3122 33.2341 10.5144 29.6276 11.5959C26.0211 12.6774 24.5179 16.4038 24.205 21.9139C23.892 27.424 29.6212 41.2339 32.6698 46.1512" stroke="#CE8228" stroke-width="2"/>
<path d="M23.2022 64.4331C23.9287 63.3111 25.3898 63.3498 26.5363 63.5347C27.6828 63.7196 28.2899 64.4198 28.4613 65.4445C28.7688 67.2833 28.9834 68.5668 28.0515 70.6036C27.4514 71.9151 26.244 72.0639 24.7926 72.0428C23.5478 72.0201 22.471 71.4759 22.2676 70.2596C21.8577 67.8079 22.1908 65.9949 23.2022 64.4331Z" fill="#CE8228"/>
<path d="M14.6551 60.8862C15.8856 59.4222 18.3118 60.2753 18.3118 60.2753C18.3118 60.2753 19.6988 60.6082 19.6455 62.1922C19.5628 64.6514 19.0248 66.091 18.2989 67.4575C17.815 68.3685 17.5243 68.5319 15.3067 68.5874C13.0891 68.6429 12.5233 67.1624 13.0933 64.862C13.6966 62.427 14.3441 61.2563 14.6551 60.8862Z" fill="#CE8228"/>
<path d="M40.9999 49.7316C44.7137 49.1111 48.0791 49.6384 50.78 49.7316M65.2753 62.8572C65.2753 62.8572 64.2744 58.7255 63.5972 57.1148C62.9201 55.5042 62.9508 54.9927 60.4999 53C60.4999 53 53.481 49.8249 50.78 49.7316M65.2753 62.8572C65.2753 62.8572 60.9996 66.2045 57.0491 67.1508C54.3339 67.8013 55.0091 67.7948 52.491 67.9766C49.973 68.1585 50.7295 68.1485 46.663 67.7587M65.2753 62.8572L71.0833 64.9938M46.663 67.7587C43.7046 67.4752 40.9319 66.4938 38.7029 65.4445M46.663 67.7587C46.663 67.7587 52.9508 63.4357 54.9999 60.2753C57.78 55.6604 57.8167 52 57.8167 52M33.5196 62.3679C33.5196 62.3679 35.5765 63.9729 38.7029 65.4445M25.4999 53C25.4999 53 22.5818 54.1039 18.8382 53.5827C18.8382 53.5827 11.3008 52.6052 11.5 48.1049C11.5 48.1049 13.2647 45.2702 15.2397 43.318C15.2397 43.318 15.7186 42.7543 16.7835 42.2415M27.9948 55.2617L18.3118 60.2753M18.3118 60.2753C18.3118 60.2753 15.8856 59.4222 14.6551 60.8862C14.3441 61.2563 13.6966 62.427 13.0933 64.862C12.5233 67.1624 13.0891 68.6429 15.3067 68.5874M18.3118 60.2753C18.3118 60.2753 19.6988 60.6082 19.6455 62.1922C19.5628 64.6514 19.0248 66.091 18.2989 67.4575C17.815 68.3685 17.5243 68.5319 15.3067 68.5874M15.3067 68.5874C14.8926 69.9167 14.9418 72.1136 14.9418 72.1136M32.76 59.218C30.3479 61.2022 28.9484 61.5505 26.5363 63.5347M26.5363 63.5347C25.3898 63.3498 23.9287 63.3111 23.2022 64.4331C22.1908 65.9949 21.8577 67.8079 22.2676 70.2596C22.471 71.4759 23.5478 72.0201 24.7926 72.0428M26.5363 63.5347C27.6828 63.7196 28.2899 64.4198 28.4613 65.4445C28.7688 67.2833 28.9834 68.5668 28.0515 70.6036C27.4514 71.9151 26.244 72.0639 24.7926 72.0428M24.7926 72.0428C24.7387 73.6269 24.9949 75.1592 24.9949 75.1592M50.78 49.7316C50.78 49.7316 50.78 52.5 47.9999 57.1148C45.2198 61.7297 38.7029 65.4445 38.7029 65.4445M28.5878 48.1049C28.5878 48.1049 29.0643 46.2344 28.5878 45.3641C28.1113 44.4938 27.6347 43.6235 27.6347 43.6235C27.6347 43.6235 26.0081 41.686 24.3526 41.3482C22.6971 41.0104 21.7149 40.8694 20.1712 41.1491C19.8024 41.2159 19.4953 41.2822 19.2317 41.348M9 37.3701C9 37.3701 13.5121 38.529 14.5126 39.3043C15.5131 40.0797 16.7835 42.2415 16.7835 42.2415M16.7835 42.2415C16.9841 42.1449 17.2055 42.0501 17.4484 41.9612C17.9939 41.7617 18.392 41.5575 19.2317 41.348M13.0933 33.5C13.0933 33.5 17.5183 35.8899 18.1488 37.3701C18.7792 38.8503 19.2317 41.348 19.2317 41.348" stroke="#CE8228" stroke-width="2"/>
</svg>
